<?xml version="1.0" encoding="UTF-8" standalone="no"?>
<!-- Created with Inkscape (http://www.inkscape.org/) -->

<svg
   width="210mm"
   height="297mm"
   viewBox="0 0 210 297"
   version="1.1"
   id="svg1"
   xml:space="preserve"
   inkscape:version="1.4 (86a8ad7, 2024-10-11)"
   sodipodi:docname="dark_shop.svg"
   xmlns:inkscape="http://www.inkscape.org/namespaces/inkscape"
   xmlns:sodipodi="http://sodipodi.sourceforge.net/DTD/sodipodi-0.dtd"
   xmlns="http://www.w3.org/2000/svg"
   xmlns:svg="http://www.w3.org/2000/svg"><sodipodi:namedview
     id="namedview1"
     pagecolor="#505050"
     bordercolor="#eeeeee"
     borderopacity="1"
     inkscape:showpageshadow="0"
     inkscape:pageopacity="0"
     inkscape:pagecheckerboard="0"
     inkscape:deskcolor="#505050"
     inkscape:document-units="mm"
     inkscape:zoom="1.4142136"
     inkscape:cx="369.10974"
     inkscape:cy="514.42018"
     inkscape:window-width="2560"
     inkscape:window-height="1417"
     inkscape:window-x="1912"
     inkscape:window-y="-8"
     inkscape:window-maximized="1"
     inkscape:current-layer="g7" /><defs
     id="defs1" /><g
     inkscape:label="Calque 1"
     inkscape:groupmode="layer"
     id="layer1"><path
       id="circle7"
       style="fill:#000000;stroke-width:0.143926"
       d="M 104.99979 123.13305 A 25.366926 25.366926 0 0 0 79.632865 148.49998 A 25.366926 25.366926 0 0 0 104.99979 173.86691 A 25.366926 25.366926 0 0 0 130.36672 148.49998 A 25.366926 25.366926 0 0 0 104.99979 123.13305 z M 104.99979 125.18357 A 23.316406 23.316406 0 0 1 128.3162 148.49998 A 23.316406 23.316406 0 0 1 104.99979 171.81639 A 23.316406 23.316406 0 0 1 81.683386 148.49998 A 23.316406 23.316406 0 0 1 104.99979 125.18357 z "
       inkscape:export-filename="dark_shop.png"
       inkscape:export-xdpi="64.083443"
       inkscape:export-ydpi="64.083443" /><g
       id="g7"
       transform="translate(-121.59191,47.40857)"><path
         style="fill:#ff2a2a"
         d="m 229.78125,108.81549 c -0.9167,-0.64208 -0.70982,-0.99808 0.93355,-1.60641 0.83661,-0.3097 2.1462,-0.81397 2.91018,-1.12062 0.76399,-0.30664 1.38907,-0.45697 1.38907,-0.33405 0,0.12292 -0.3967,0.72479 -0.88155,1.3375 -1.59164,2.01134 -3.09195,2.60563 -4.35125,1.72358 z"
         id="path6" /><path
         style="fill:#ff2a2a"
         d="m 221.50494,108.5941 c -0.876,-0.59526 -2.56958,-2.70301 -2.33906,-2.91108 0.22466,-0.20279 5.78422,2.10678 5.78897,2.40487 0.007,0.47017 -1.07595,1.13948 -1.84451,1.13948 -0.3704,0 -1.09283,-0.28497 -1.6054,-0.63327 z"
         id="path5" /><path
         id="path1"
         style="fill:#000000"
         d="m 210.67783,110.62793 c -0.61495,-0.69755 -1.35426,-1.73013 -1.64291,-2.29462 -0.45754,-0.89477 -0.48634,-1.17918 -0.22467,-2.21837 0.37993,-1.50887 1.21246,-3.17872 2.01005,-4.03173 0.66411,-0.71025 4.61197,-8.71895 5.80373,-11.773549 0.39743,-1.018646 0.858,-2.021115 1.02349,-2.227709 0.24865,-0.310399 4.31821,-3.603657 5.72031,-4.629104 0.21578,-0.157815 -0.79625,1.029311 -2.24896,2.638059 -2.78609,3.085353 -3.14811,3.69513 -6.23525,10.502608 -0.84141,1.855391 -1.44854,3.37158 -1.34918,3.36931 0.0994,-0.0023 1.84752,-0.299113 3.88481,-0.659651 2.03729,-0.360538 3.82323,-0.653372 3.96875,-0.650742 0.14552,0.0026 -1.40229,0.63709 -3.43958,1.409908 -4.76379,1.80709 -5.28864,2.09272 -6.10106,3.32037 -0.52737,0.79691 -0.67983,1.37179 -0.69768,2.63066 -0.0265,1.86906 -0.41716,1.25694 5.34388,8.37337 2.1205,2.61938 3.96504,4.9411 4.09899,5.15938 0.29116,0.47446 -2.36784,-1.70213 -5.24191,-4.2909 0,0 -1.4051,-1.21445 -2.06862,-1.86326 -0.90508,-0.88501 -1.7691,-1.79112 -2.60419,-2.76403 z m 27.64348,4.35893 c -1.31724,1.2295 -5.37306,4.78862 -6.08542,5.34016 l -0.52917,0.4097 0.52917,-0.66146 c 0.29104,-0.3638 0.59042,-0.72099 0.66529,-0.79375 0.72588,-0.70544 3.63209,-4.22692 5.19033,-6.28916 2.28737,-3.02721 3.5381,-5.26206 3.5345,-6.31558 -0.004,-1.19322 -1.15566,-3.36041 -2.27838,-4.28775 -2.52781,-2.08787 -8.33753,-4.248685 -12.5696,-4.675013 -0.92724,-0.09341 -1.86449,-0.242326 -2.08277,-0.330929 -0.40299,-0.163576 3.2e-4,-0.223713 5.75469,-0.858071 1.78263,-0.196516 3.24115,-0.439399 3.24115,-0.53974 0,-0.255631 -4.32032,-0.781884 -6.36792,-0.775669 -0.93603,0.0028 -3.00456,0.17852 -4.59672,0.390398 -1.59217,0.211877 -2.93889,0.341192 -2.99271,0.287365 -0.0538,-0.05383 1.24885,-0.933798 2.89484,-1.955491 1.64599,-1.021693 3.2777,-2.161467 3.62601,-2.532832 0.61984,-0.660853 0.62935,-0.742894 0.44709,-3.858865 -0.10242,-1.751011 -0.12811,-3.183657 -0.0571,-3.183657 0.071,0 1.23172,0.295071 2.57932,0.655713 1.3476,0.360642 2.4841,0.6218 2.52555,0.580352 0.0415,-0.04145 -0.487,-0.503933 -1.17432,-1.027742 -0.68733,-0.52381 -1.88672,-1.439812 -2.66532,-2.03556 -0.77859,-0.595749 -1.27562,-1.08318 -1.10451,-1.08318 0.54601,0 6.28533,2.829126 7.28292,3.590025 0.97656,0.744857 1.76175,2.016097 2.09174,3.386564 0.1005,0.417384 1.25956,2.922514 2.5757,5.566956 1.73429,3.484608 2.39925,5.096444 2.41577,5.855703 0.0183,0.840193 0.24498,1.297493 1.14489,2.309523 1.47601,1.65991 2.22267,3.25111 2.22267,4.73672 0,0.97616 -0.18371,1.44403 -0.98011,2.49615 -0.53906,0.71215 -0.78142,0.93292 -1.19063,1.38301 -1.31045,1.44137 -2.07407,2.37464 -4.04695,4.21611 z" /><path
         style="fill:#000000;stroke-width:0.0836077"
         d="m 225.31225,121.91037 v -0.56409 h -0.67646 -0.67646 l 0.0124,-0.0608 c 0.007,-0.0335 0.0327,-0.18527 0.0575,-0.33736 0.0248,-0.15208 0.0508,-0.30389 0.0575,-0.33735 l 0.0124,-0.0608 h 0.2659 c 0.53531,0 0.51183,0.13074 0.46342,-2.58093 l -0.0139,-0.77805 -0.0553,-0.0599 c -0.0942,-0.10204 -0.1706,-0.12056 -0.49703,-0.12056 h -0.29934 v -0.365 -0.365 h 0.6747 0.67471 v -0.55304 -0.55303 h 0.34287 0.34288 v 0.54197 0.54198 h 0.26545 0.26547 v -0.54198 -0.54197 h 0.33182 0.33182 v 0.55167 0.55168 l 0.10507,0.0139 c 1.12701,0.14959 1.56682,0.54309 1.52662,1.36591 -0.0196,0.40191 -0.17742,0.66781 -0.51599,0.86949 -0.0329,0.0195 -0.0104,0.0336 0.13589,0.0855 0.57022,0.20186 0.81431,0.59555 0.776,1.25155 -0.0537,0.91777 -0.57344,1.35143 -1.76071,1.46887 l -0.25583,0.0253 -0.005,0.55808 -0.005,0.55808 h -0.33144 -0.33143 v -0.55303 -0.55304 h -0.26546 -0.26545 v 0.55304 0.55303 h -0.34289 -0.34288 z m 1.55955,-1.38338 c 0.68685,-0.0779 1.0051,-0.30505 1.00582,-0.71815 7e-4,-0.52092 -0.44608,-0.74036 -1.50908,-0.74088 l -0.37053,-1.7e-4 v 0.74106 0.74107 l 0.33735,-1.7e-4 c 0.18555,-8e-5 0.42694,-0.0104 0.53644,-0.0227 z m 0.0329,-2.18058 c 0.44988,-0.0915 0.66385,-0.29394 0.66385,-0.62804 0,-0.46011 -0.37035,-0.66364 -1.20756,-0.66364 h -0.36306 v 0.65995 c 0,0.36298 0.008,0.66782 0.0166,0.67742 0.0257,0.027 0.70384,-0.008 0.89017,-0.0457 z"
         id="path7" /></g></g></svg>
